<?xml version="1.0" encoding="UTF-8"?>
<svg xmlns="http://www.w3.org/2000/svg" width="512" height="512" viewBox="0 0 512 512">
  <rect width="512" height="512" fill="none"/>
  <g transform="translate(256 256) scale(0.9)" fill="none" stroke-linecap="round" stroke-linejoin="round">
    <path d="M -210 -70 H -60 C 10 -70 30 -35 70 0 C 110 35 130 70 200 70 H 232"
          stroke="#FFFFFF" stroke-width="44"/>
    <path d="M -210 70 H -60 C 10 70 30 35 70 0 C 110 -35 130 -70 200 -70 H 232"
          stroke="#FFFFFF" stroke-width="44"/>
    <path d="M 232 70 L 178 108" stroke="#FFFFFF" stroke-width="44"/>
    <path d="M 232 70 L 178 32" stroke="#FFFFFF" stroke-width="44"/>
    <path d="M 232 -70 L 178 -32" stroke="#FFFFFF" stroke-width="44"/>
    <path d="M 232 -70 L 178 -108" stroke="#FFFFFF" stroke-width="44"/>
    <g transform="translate(40,-35)">
      <path d="M 40 -110 V 10 C 40 50 10 78 -30 78 C -75 78 -108 50 -108 14 C -108 -22 -82 -52 -38 -52
               C -10 -52 15 -44 40 -30"
            stroke="#B7B7B7" stroke-width="38"/>
      <path d="M 40 -110 L 128 -136" stroke="#B7B7B7" stroke-width="38"/>
      <path d="M 128 -136 V -12" stroke="#B7B7B7" stroke-width="38"/>
      <circle cx="-44" cy="18" r="30" fill="#B7B7B7" stroke="none"/>
      <circle cx="113" cy="-16" r="30" fill="#B7B7B7" stroke="none"/>
    </g>
  </g>
</svg>
