<?xml version="1.0" encoding="UTF-8"?>
<svg xmlns="http://www.w3.org/2000/svg" width="1200" height="900" viewBox="0 0 1200 900">
  <rect width="1200" height="900" fill="none"/>
  <!-- ICON -->
  <g transform="translate(600 340) scale(1.0)" fill="none" stroke-linecap="round" stroke-linejoin="round">
    <!-- Shuffle arrows -->
    <path d="M -220 -80 H -60 C 20 -80 40 -40 80 0 C 120 40 140 80 220 80 H 260"
          stroke="#FFFFFF" stroke-width="44"/>
    <path d="M -220 80 H -60 C 20 80 40 40 80 0 C 120 -40 140 -80 220 -80 H 260"
          stroke="#FFFFFF" stroke-width="44"/>
    <!-- Arrow heads -->
    <path d="M 260 80 L 200 120" stroke="#FFFFFF" stroke-width="44"/>
    <path d="M 260 80 L 200 40" stroke="#FFFFFF" stroke-width="44"/>
    <path d="M 260 -80 L 200 -40" stroke="#FFFFFF" stroke-width="44"/>
    <path d="M 260 -80 L 200 -120" stroke="#FFFFFF" stroke-width="44"/>
    <!-- Note (secondary tone) -->
    <g transform="translate(55,-40)">
      <path d="M 40 -120 V 10 C 40 55 5 85 -40 85 C -90 85 -125 55 -125 15 C -125 -25 -95 -60 -45 -60
               C -10 -60 15 -50 40 -35"
            stroke="#B7B7B7" stroke-width="40"/>
      <path d="M 40 -120 L 140 -150" stroke="#B7B7B7" stroke-width="40"/>
      <path d="M 140 -150 V -10" stroke="#B7B7B7" stroke-width="40"/>
      <circle cx="-55" cy="18" r="34" fill="#B7B7B7" stroke="none"/>
      <circle cx="125" cy="-18" r="34" fill="#B7B7B7" stroke="none"/>
    </g>
  </g>

  <!-- WORDMARK -->
  <text x="600" y="720" text-anchor="middle"
        font-family="Inter, system-ui, -apple-system, Segoe UI, Roboto, Arial, sans-serif"
        font-size="120" font-weight="700" letter-spacing="-2"
        fill="#FFFFFF">true-shuffel</text>
</svg>
